<svg xmlns="http://www.w3.org/2000/svg" viewBox="0 0 119.13 119.05"><defs><style>.cls-1{fill:#4b4b4b;}</style></defs><title>PonishaLogo</title><g id="Layer_2" data-name="Layer 2"><g id="Layer_1-2" data-name="Layer 1"><path class="cls-1" d="M118.91,40.05c0,19.13.25,38.26,0,57.39-.12,12.5-9.55,21.51-22.12,21.55q-37.19.12-74.37,0C9.91,119,.46,109.92.33,97.44c-.19-19.13,0-38.26,0-57.39H43.14V76.79H75.68V40.05ZM78.43,97c-18.91,1.88-36.19-1.42-49.88-15.92l-5,4.21C34,98.82,58.38,106,76.51,101,78.52,100.5,79.56,99.83,78.43,97Z"/><path class="cls-1" d="M.35,34.37C.34,27.26-1.11,20,2,13.17,5.68,4.85,12.11.08,21.42.05,45.57,0,69.73,0,93.88,0c17.23,0,25.26,8.06,25.25,25.36,0,3-.12,6-.18,9H69.8V70.94H48.68V34.37Z"/></g></g></svg>